<?xml version="1.0"?>
<svg xmlns="http://www.w3.org/2000/svg" id="icon" viewBox="0 0 128 128" width="512" height="512"><path d="M124.407,91.027H32.922v5.187h91.485a2.593,2.593,0,1,0,0-5.187Z" fill="#ec8f4a"/><path d="M124.406,97.213H32.922a1,1,0,0,1-1-1V91.027a1,1,0,0,1,1-1h91.484a3.593,3.593,0,1,1,0,7.187Zm-90.484-2h90.484a1.593,1.593,0,1,0,0-3.187H33.922Z" fill="#2f3a5a"/><path d="M60.761,52.519a23.013,23.013,0,0,0,11.1,35.455c-8.775,9.221-29.08,22-41.764,20.94,14.705,16.521,71.27,28.753,80.468-6.381,4.216-16.1-1.374-36.4-18.88-46.969" fill="#84879c"/><path d="M110.558,102.537c-9.194,35.126-65.761,22.9-80.471,6.38a26.162,26.162,0,0,0,8.792-1C60.23,120.2,102.7,124.773,110.558,94.751a40.967,40.967,0,0,0,1.155-6.7A42.211,42.211,0,0,1,110.558,102.537Z" fill="#707583"/><path d="M75.126,126.169c-18.238,0-37.795-7.618-45.781-16.59a1,1,0,0,1-.147-1.112,1.013,1.013,0,0,1,.978-.549c11.766,1,30.592-10.4,39.894-19.553A24.009,24.009,0,0,1,59.956,51.925a1,1,0,0,1,1.609,1.188A22.011,22.011,0,0,0,72.178,87.027a1,1,0,0,1,.4,1.636c-8.557,8.99-27.188,20.727-40.053,21.29,10.626,9.725,36.093,17.375,54.935,12.85,8.157-1.958,18.618-7.109,22.13-20.523,3.782-14.445-.372-34.958-18.429-45.86A1,1,0,1,1,92.2,54.708c18.937,11.433,23.295,32.937,19.331,48.079-2.979,11.375-11.139,18.969-23.6,21.961A55.069,55.069,0,0,1,75.126,126.169Z" fill="#2f3a5a"/><path d="M107.047,45.323c-2.662-6.876-12.39-7.229-12.39-7.229-.991-6.735-3.169-8.913-3.169-8.913H75.444l-9.9,14.856S81.188,58.5,90.3,55.921s6.537-9.309,6.537-9.309h9.305A.96.96,0,0,0,107.047,45.323Z" fill="#e8c79c"/><path d="M87.974,57.224c-9.517,0-22.514-11.9-23.112-12.453a1,1,0,0,1-.153-1.289l9.9-14.855a1,1,0,0,1,.832-.445H91.487a1,1,0,0,1,.707.293c.095.095,2.248,2.311,3.327,8.684,2.529.259,10.036,1.549,12.458,7.8a1.933,1.933,0,0,1-.212,1.79,1.973,1.973,0,0,1-1.627.86H98.092a7.494,7.494,0,0,1-.685,4.414c-1.135,2.262-3.436,3.9-6.836,4.858A9.543,9.543,0,0,1,87.974,57.224ZM66.854,43.868c2.977,2.6,15.69,13.2,23.173,11.091,2.824-.8,4.7-2.079,5.58-3.806a5.719,5.719,0,0,0,.293-4.189,1,1,0,0,1,.936-1.352h9.25c-2.438-6.12-11.375-6.515-11.465-6.518a1,1,0,0,1-.953-.854c-.726-4.932-2.108-7.285-2.66-8.059H75.979Z" fill="#2f3a5a"/><path d="M110.233,79.97C106.817,70.72,93.624,69.395,87,70.717c-4.49.9-8.369,3.632-12.632,5.3A28.09,28.09,0,0,1,50.737,74.39C53.01,81.8,53.372,90.459,58.095,96.6s14.382,9.569,22.036,8.356" fill="#84879c"/><path d="M76.895,106.207c-7.433,0-15.405-3.546-19.593-8.994-3.406-4.432-4.625-10.071-5.8-15.525-.506-2.342-1.03-4.765-1.717-7a1,1,0,0,1,1.445-1.166A26.941,26.941,0,0,0,74,75.088c1.532-.6,3.06-1.365,4.536-2.1A33.211,33.211,0,0,1,86.8,69.737c7.777-1.556,20.908.514,24.37,9.887a1,1,0,0,1-1.877.692c-3.353-9.08-16.58-9.719-22.1-8.619a31.262,31.262,0,0,0-7.76,3.074c-1.517.759-3.085,1.545-4.7,2.179a29,29,0,0,1-22.417-.641c.423,1.642.785,3.318,1.14,4.956,1.132,5.237,2.3,10.653,5.435,14.729,4.35,5.658,13.61,9.164,21.087,7.977a1,1,0,0,1,.313,1.976A21.7,21.7,0,0,1,76.895,106.207Z" fill="#2f3a5a"/><path d="M45.835,89.37a16.344,16.344,0,0,0-10.117-.334S12.058,84.093,5.6,75.771c0,0-12.789,21.294,4.282,38.3,0,0,17.544-5.085,26.338-14.777,0,0,5.34,1.35,9.615-1.274Z" fill="#e8c79c"/><path d="M9.882,115.073a1,1,0,0,1-.706-.292C-8.248,97.421,4.61,75.475,4.742,75.256a1,1,0,0,1,1.647-.1c5.826,7.507,26.847,12.312,29.3,12.85a17.212,17.212,0,0,1,10.543.445,1,1,0,0,1,.6.917v8.652a1,1,0,0,1-.477.852c-3.768,2.313-8.2,1.8-9.789,1.516-8.985,9.512-25.692,14.435-26.409,14.643A.991.991,0,0,1,9.882,115.073ZM5.794,77.507c-2.352,4.643-9.276,21.36,4.374,35.433,3.051-.964,17.687-5.912,25.312-14.314a1.006,1.006,0,0,1,.983-.3c.049.011,4.6,1.111,8.372-.885V90.076A15.9,15.9,0,0,0,35.988,90a1.007,1.007,0,0,1-.475.017C34.576,89.82,13.445,85.33,5.794,77.507Z" fill="#2f3a5a"/><line x1="35.718" y1="89.037" x2="36.22" y2="99.297" fill="#e1b378"/><path d="M36.219,100.3a1,1,0,0,1-1-.951l-.5-10.26a1,1,0,0,1,.95-1.048,1.014,1.014,0,0,1,1.048.95l.5,10.26a1,1,0,0,1-.95,1.048Z" fill="#2f3a5a"/><path d="M44.8,81.6c1.905-3.583,3.605-4.481,4.687-14.1.335-2.978,4.832-4.956,5.768-7.775.846-2.547-1-6.568.361-8.83,1.146-1.9,3.286-3.361,3.143-5.636s-.362-4.657.461-6.751,3.123-3.692,5-2.721l11.3-5.256c-1.881-.971-4.181.628-5,2.721s-.6,4.476-.461,6.751.153,4.722-.992,6.625c-1.362,2.262-4.142,3.359-4.987,5.906-.936,2.82.985,5.93.49,8.881-.684,4.079-5.359,5.693-7.264,9.276-1.245,2.341-1.152,5.212-1.438,7.9S54.6,84.276,52.3,85.26" fill="#ffa245"/><path d="M52.295,86.261a1,1,0,0,1-.393-1.92c2.215-.947,2.81-4.407,2.963-5.851.063-.586.105-1.181.15-1.777a16.041,16.041,0,0,1,1.4-6.491,15.382,15.382,0,0,1,3.621-4.112c1.647-1.469,3.2-2.857,3.539-4.859a10.581,10.581,0,0,0-.331-3.766,10.009,10.009,0,0,1-.122-5.266,9.044,9.044,0,0,1,2.975-3.84A10.4,10.4,0,0,0,68.2,46.111c1.027-1.707.978-4.016.851-6.046l-.027-.432a21.055,21.055,0,0,1,.074-5.014l-4.458,2.075a1,1,0,0,1-.881-.018,1.753,1.753,0,0,0-1.475-.037,3.99,3.99,0,0,0-2.14,2.235,14.015,14.015,0,0,0-.422,5.887l.028.436c.122,1.953-1.055,3.375-2.094,4.63a13.526,13.526,0,0,0-1.19,1.584c-.563.937-.372,2.542-.187,4.1a10.755,10.755,0,0,1-.08,4.533,10.51,10.51,0,0,1-3.065,3.95c-1.295,1.223-2.519,2.379-2.658,3.623-.9,7.971-2.215,10.135-3.742,12.642-.343.562-.7,1.14-1.056,1.817a1,1,0,1,1-1.766-.939c.38-.715.752-1.326,1.113-1.919,1.4-2.3,2.616-4.293,3.462-11.824.222-1.971,1.773-3.436,3.273-4.853A9.229,9.229,0,0,0,54.3,59.41a9.489,9.489,0,0,0-.008-3.667c-.225-1.888-.457-3.841.461-5.364a15.21,15.21,0,0,1,1.363-1.828c.918-1.109,1.711-2.067,1.638-3.229l-.027-.432a15.458,15.458,0,0,1,.556-6.747,5.99,5.99,0,0,1,3.3-3.375,3.787,3.787,0,0,1,2.62-.074l5.826-2.711a5.844,5.844,0,0,1,2.85-2.471,3.72,3.72,0,0,1,3.1.131,1,1,0,0,1-.036,1.8l-4.45,2.071c-.016.037-.03.073-.045.11a14.015,14.015,0,0,0-.422,5.887l.028.436c.157,2.5.128,5.107-1.134,7.2a12.073,12.073,0,0,1-2.489,2.729,7.437,7.437,0,0,0-2.405,2.976,8.42,8.42,0,0,0,.184,4.236,12.209,12.209,0,0,1,.344,4.5c-.452,2.7-2.348,4.386-4.181,6.021a13.713,13.713,0,0,0-3.187,3.559,14.368,14.368,0,0,0-1.171,5.7c-.046.617-.092,1.233-.156,1.84-.236,2.229-1.091,6.166-4.166,7.479A1,1,0,0,1,52.295,86.261Z" fill="#2f3a5a"/><path d="M62.418,85.26c2.582-2.13,2.711-3.973,3-6.665s.193-5.563,1.438-7.9c1.905-3.583,6.581-5.2,7.264-9.276.495-2.952-1.427-6.061-.49-8.881.846-2.547,3.625-3.644,4.987-5.906,1.146-1.9,1.135-4.35.992-6.625s-.362-4.657.461-6.751,3.123-3.692,5-2.721l9.686-.715c-3.556.2-4.311,1.343-5.134,3.436s-.6,4.476-.461,6.751.153,4.722-.992,6.625c-1.362,2.262-4.142,3.359-4.987,5.906-.936,2.82.985,5.93.49,8.881-.684,4.079-5.359,5.693-7.264,9.276-1.245,2.341-1.152,5.212-1.438,7.9s-1.262,5.681-3.564,6.665" fill="#ffa245"/><path d="M71.407,86.261a1,1,0,0,1-.393-1.92c2.214-.946,2.809-4.407,2.962-5.851.063-.586.105-1.181.15-1.777a16.041,16.041,0,0,1,1.4-6.491,15.4,15.4,0,0,1,3.621-4.112c1.648-1.47,3.2-2.858,3.54-4.86a10.6,10.6,0,0,0-.331-3.765,10.009,10.009,0,0,1-.123-5.266,9.043,9.043,0,0,1,2.975-3.841,10.4,10.4,0,0,0,2.105-2.267c1.027-1.707.978-4.016.851-6.046l-.027-.432a15.458,15.458,0,0,1,.556-6.747,9.728,9.728,0,0,1,.819-1.681l-4.367.322a.967.967,0,0,1-.531-.108,1.76,1.76,0,0,0-1.477-.036A3.989,3.989,0,0,0,81,33.618a14.015,14.015,0,0,0-.422,5.887l.028.436c.157,2.5.128,5.107-1.134,7.2a12.073,12.073,0,0,1-2.489,2.729,7.437,7.437,0,0,0-2.405,2.976,8.42,8.42,0,0,0,.184,4.236,12.209,12.209,0,0,1,.344,4.5c-.452,2.7-2.348,4.386-4.181,6.021a13.713,13.713,0,0,0-3.187,3.559,14.368,14.368,0,0,0-1.171,5.7c-.046.617-.092,1.233-.156,1.84l-.022.211c-.281,2.673-.5,4.785-3.332,7.12a1,1,0,0,1-1.273-1.543c2.2-1.813,2.356-3.309,2.617-5.786l.022-.213c.063-.586.105-1.181.15-1.777a16.041,16.041,0,0,1,1.4-6.491,15.382,15.382,0,0,1,3.621-4.112c1.647-1.469,3.2-2.857,3.539-4.859a10.581,10.581,0,0,0-.331-3.766,10.009,10.009,0,0,1-.122-5.266,9.044,9.044,0,0,1,2.975-3.84,10.4,10.4,0,0,0,2.105-2.267c1.027-1.707.978-4.016.851-6.046l-.027-.432a15.458,15.458,0,0,1,.556-6.747,5.989,5.989,0,0,1,3.3-3.375,3.749,3.749,0,0,1,2.823,0l8.876-.655q.274-.025.569-.042a1,1,0,0,1,.13,2l-.579.043c-2.6.242-3.029,1.062-3.7,2.762a14.015,14.015,0,0,0-.422,5.887l.028.436c.157,2.5.128,5.107-1.134,7.2a12.073,12.073,0,0,1-2.489,2.729,7.437,7.437,0,0,0-2.405,2.976,8.444,8.444,0,0,0,.184,4.237,12.225,12.225,0,0,1,.345,4.495c-.452,2.7-2.348,4.387-4.181,6.021a13.71,13.71,0,0,0-3.187,3.559,14.368,14.368,0,0,0-1.171,5.7c-.046.617-.092,1.233-.156,1.84-.236,2.229-1.091,6.166-4.165,7.479A1,1,0,0,1,71.407,86.261Z" fill="#2f3a5a"/><path d="M53.109,85.26c2.582-2.13,2.711-3.973,3-6.665s.193-5.563,1.438-7.9c1.905-3.583,6.581-5.2,7.264-9.276.495-2.952-1.427-6.061-.49-8.881.846-2.547,3.625-3.644,4.987-5.906,1.146-1.9,1.135-4.35.992-6.625s-.362-4.657.461-6.751,3.123-3.692,5-2.721l9.686-.715c-3.556.2-4.311,1.343-5.134,3.436s-.6,4.476-.461,6.751.153,4.722-.992,6.625c-1.362,2.262-4.142,3.359-4.987,5.906-.936,2.82.985,5.93.49,8.881-.684,4.079-5.359,5.693-7.264,9.276-1.245,2.341-1.152,5.212-1.438,7.9S64.4,84.276,62.1,85.26" fill="#ffa245"/><path d="M62.1,86.261a1,1,0,0,1-.393-1.92c2.215-.947,2.81-4.407,2.963-5.851.063-.586.105-1.181.15-1.777a16.041,16.041,0,0,1,1.4-6.491,15.382,15.382,0,0,1,3.621-4.112c1.647-1.469,3.2-2.857,3.539-4.859a10.581,10.581,0,0,0-.331-3.766,10.009,10.009,0,0,1-.122-5.266,9.044,9.044,0,0,1,2.975-3.84A10.4,10.4,0,0,0,78,46.111c1.027-1.707.978-4.016.851-6.046l-.027-.432a15.458,15.458,0,0,1,.556-6.747,9.728,9.728,0,0,1,.819-1.681l-4.367.322a.967.967,0,0,1-.531-.108,1.76,1.76,0,0,0-1.477-.036,3.989,3.989,0,0,0-2.139,2.235,13.993,13.993,0,0,0-.422,5.882l.028.441c.157,2.5.128,5.107-1.134,7.2a12.073,12.073,0,0,1-2.489,2.729,7.437,7.437,0,0,0-2.405,2.976,8.42,8.42,0,0,0,.184,4.236,12.209,12.209,0,0,1,.344,4.5c-.452,2.7-2.348,4.387-4.181,6.022a13.7,13.7,0,0,0-3.187,3.558,14.39,14.39,0,0,0-1.171,5.7c-.045.615-.091,1.23-.155,1.835l-.022.214c-.282,2.672-.5,4.784-3.332,7.117a1,1,0,1,1-1.273-1.542c2.2-1.813,2.355-3.309,2.616-5.785l.023-.215c.062-.584.105-1.178.149-1.772a16.062,16.062,0,0,1,1.4-6.5,15.391,15.391,0,0,1,3.621-4.112c1.648-1.47,3.205-2.858,3.54-4.86a10.581,10.581,0,0,0-.331-3.766,10.009,10.009,0,0,1-.122-5.266,9.044,9.044,0,0,1,2.975-3.84,10.4,10.4,0,0,0,2.105-2.267c1.027-1.707.978-4.016.851-6.046l-.028-.437a15.421,15.421,0,0,1,.557-6.742,5.989,5.989,0,0,1,3.3-3.375,3.749,3.749,0,0,1,2.823,0l8.875-.655c.184-.017.373-.031.57-.042a1,1,0,0,1,.13,2l-.58.043c-2.595.242-3.028,1.062-3.7,2.762a14.015,14.015,0,0,0-.422,5.887l.028.436c.157,2.5.128,5.107-1.134,7.2a12.073,12.073,0,0,1-2.489,2.729,7.437,7.437,0,0,0-2.405,2.976,8.42,8.42,0,0,0,.184,4.236,12.209,12.209,0,0,1,.344,4.5C74.9,64.276,73,65.967,71.17,67.6a13.713,13.713,0,0,0-3.187,3.559,14.368,14.368,0,0,0-1.171,5.7c-.046.617-.092,1.233-.156,1.84-.236,2.229-1.091,6.166-4.166,7.479A1,1,0,0,1,62.1,86.261Z" fill="#2f3a5a"/><path d="M56.916,3.113s28.942-4.17,32.621,20.357c0,0,11.037.245,17.9,5.886,0,0-41.7.736-56.412,13.735,0,0,2.7-10.792,15.7-14.226,0,0,4.66-8.584.736-13.98S53.482,4.094,53.482,4.094Z" fill="#9297ab"/><path d="M56.916,3.113s28.942-4.17,32.621,20.357c0,0,11.037.245,17.9,5.886,0,0-41.7.736-56.412,13.735,0,0,2.7-10.792,15.7-14.226,0,0,4.66-8.584.736-13.98S53.482,4.094,53.482,4.094Z" fill="#9297ab"/><path d="M73.815,28.869a22.469,22.469,0,0,0-12.69,8.36,35.442,35.442,0,0,0-10.1,5.868s2.7-10.791,15.7-14.227c0,0,4.652-8.591.734-13.986S53.478,4.092,53.478,4.092l3.436-.975a41.12,41.12,0,0,1,8.3-.131c-.774.07-1.206.131-1.206.131l-3.436.975s10.058,5.4,13.976,10.791S73.815,28.869,73.815,28.869Z" fill="#84879c"/><path d="M51.029,44.092a1,1,0,0,1-.97-1.243c.114-.459,2.934-11.167,15.974-14.831.792-1.639,3.691-8.322.62-12.544-3.742-5.147-13.546-10.446-13.645-10.5a1,1,0,0,1,.2-1.843l3.435-.981a.917.917,0,0,1,.132-.028c.295-.045,29.328-3.935,33.619,20.387,2.763.178,11.661,1.127,17.684,6.073a1,1,0,0,1-.617,1.773c-.413.007-41.5.879-55.768,13.485A1,1,0,0,1,51.029,44.092ZM56.039,4.4c3.216,1.914,9.3,5.857,12.231,9.895,4.247,5.839-.463,14.672-.665,15.045a1,1,0,0,1-.623.49A21.092,21.092,0,0,0,53.373,40.067c14.054-9.22,41.758-11.2,51.014-11.607-6.435-3.747-14.778-3.987-14.873-3.989a1,1,0,0,1-.967-.851C85.106.678,58.968,3.842,57.124,4.094ZM66.727,28.866h0Z" fill="#2f3a5a"/><path d="M1.966,85.26S6.221,89.3,14.179,90.333" fill="#84879c"/><path d="M14.181,91.333a.977.977,0,0,1-.13-.008c-8.188-1.062-12.59-5.166-12.773-5.34a1,1,0,0,1,1.375-1.452h0a22.293,22.293,0,0,0,11.656,4.808,1,1,0,0,1-.128,1.992Z" fill="#2f3a5a"/><path d="M1.966,98.955a25.226,25.226,0,0,0,9.793,0" fill="#84879c"/><path d="M6.893,100.436a24.522,24.522,0,0,1-5.155-.507,1,1,0,0,1,.456-1.947,24.492,24.492,0,0,0,9.363-.006,1,1,0,1,1,.4,1.959A25.139,25.139,0,0,1,6.893,100.436Z" fill="#2f3a5a"/></svg>
