<?xml version="1.0" encoding="iso-8859-1"?>
<!-- Generator: Adobe Illustrator 18.1.1, SVG Export Plug-In . SVG Version: 6.00 Build 0)  -->
<svg version="1.1" id="Capa_1" xmlns="http://www.w3.org/2000/svg" xmlns:xlink="http://www.w3.org/1999/xlink" x="0px" y="0px"
	 viewBox="0 0 276 276" style="enable-background:new 0 0 276 276;" xml:space="preserve">
<g>
	<path style="fill:#030104;" d="M0,179.5l1.221-8.465l2.815-2.002L3.225,164.6c3.771,1.604,7.791,2.409,12.09,2.409
		c2.692,0,6.587-0.409,11.681-1.201c5.106-0.815,9.146-1.208,12.086-1.208l6.046,0.393l3.629-2.824l2.41,0.818l5.251-2.42
		c3.226,0,6.313,3.89,9.254,11.678c0.809,0,4.316-0.132,10.485-0.401c4.826-0.269,8.05-1.333,9.672-3.224
		c-4.299-3.493-6.449-7.516-6.449-12.092c0-1.074,5.093-8.319,15.308-21.759c11.81-15.032,18.272-23.621,19.347-25.787
		c-2.15-0.52-9.955,5.919-23.38,19.35c-14.768,14.507-24.174,22.562-28.208,24.162l-2.415-3.616
		c-16.384-0.815-25.372-2.954-26.996-6.444l-6.447-2.021l-5.23-8.059c16.647-4.022,33.177-9.796,49.559-17.311
		c20.408-9.406,34.786-15.585,43.116-18.542l-2.835-0.405l-9.672,3.629l9.285-8.061l-3.628-0.804l4.42-3.214l-2.004-2.831
		c-0.535,0-1.67,0.341-3.43,1.015c-1.747,0.66-3.287,0.87-4.642,0.598l10.891-7.249c-0.266,0-4.709-0.538-13.302-1.622
		c-5.099-0.528-9.271-1.603-12.495-3.213c14.5-4.562,26.605-9.138,36.262-13.704c-1.871-7.251-3.476-12.62-4.831-16.11
		c-5.094-1.347-11.681-5.646-19.736-12.9c-8.066-7.252-15.454-11.407-22.161-12.477l11.275-2.825
		c5.922,0,17.464,3.762,34.657,11.274c17.182,7.522,28.461,13.567,33.836,18.124c17.473-13.154,29.422-22.413,35.867-27.787
		c0,8.599-2.955,16.988-8.875,25.186c-5.904,8.185-12.888,14.695-20.932,19.533c0.521,4.026,2.732,7.39,6.631,10.071
		c3.891,2.686,5.836,5.1,5.836,7.25v3.231c-2.15-0.806-4.013-1.215-5.631-1.215c-4.83,0-7.246,2.686-7.246,8.061l1.196,8.044
		l-2.005,0.82l-6.86-5.251l-0.397,1.218l3.223,5.23l-1.605,5.648c10.205,15.851,16.244,24.583,18.131,26.196
		c4.299,4.297,14.236,9.396,29.816,15.309l10.064-4.837l-0.801,4.837c1.886,0.264,20.956-3.227,57.213-10.484H276l-3.227,2.828
		c-28.755,4.83-47.815,8.448-57.211,10.875c-2.96,3.496-5.111,5.229-6.451,5.229c-4.564,0-7.922-0.792-10.071-2.415l-6.449,4.847
		l-14.105-0.405c0,1.348,2.681,9.005,8.055,22.962c-5.374,1.884-8.055,7.929-8.055,18.129c0,9.673,0.266,15.585,0.789,17.725
		c0.776,6.721,3.232,11.687,7.392,14.915c0,3.491,1.686,6.316,5.065,8.457c3.368,2.149,6.604,4.169,9.714,6.034
		c-9.12,1.891-17.84-2.538-26.174-13.295l-3.637,3.641l-1.606-0.405c0-1.877,1.606-7.119,4.833-15.707
		c-2.415-8.608-4.423-15.182-6.041-19.751c-6.447,4.569-11.811,9.936-16.11,16.111c-1.351,1.896-5.252,8.2-11.701,18.942
		c2.415,6.711,4.587,11.22,6.449,13.494c1.894,2.291,5.928,5.046,12.087,8.271l-0.785,2.404
		c-9.695-2.671-18.416-8.188-26.205-16.509l-4.424,1.594c-0.542-1.594,1.484-5.696,6.039-12.277
		c4.565-6.572,7.125-11.215,7.659-13.902l-1.628-1.601c-2.416,0.798-9.51,2.005-21.338,3.618
		c-9.935,1.346-16.384,2.963-19.344,4.836c-0.53,0.266-2.68,2.284-6.445,6.045c-2.944,2.957-5.642,4.432-8.06,4.432l-5.634-2.416
		l-6.447,4.029c-8.054-6.449-14.646-9.674-19.754-9.674h-1.197c10.2-4.27,20.28-11.332,30.217-21.2
		c10.745-10.933,16.65-21.19,17.725-30.802l-8.865-4.4c-10.747,2.416-18.797,4.695-24.171,6.846
		c0.266,8.855-1.747,13.289-6.046,13.289c-1.334,0-2.82-0.398-4.423-1.203l-3.627,3.219l-2.819-2.016
		c-1.619,1.852-8.068,4.461-19.35,7.871c-12.615,3.671-20.667,6.42-24.171,8.246C2.15,196.96,0,187.562,0,179.5L0,179.5z"/>
	<path style="fill:#030104;" d="M115.639,87.231l-2.008-2.416c-0.547,1.084-0.807,1.885-0.807,2.416H115.639z"/>
</g>
<g>
</g>
<g>
</g>
<g>
</g>
<g>
</g>
<g>
</g>
<g>
</g>
<g>
</g>
<g>
</g>
<g>
</g>
<g>
</g>
<g>
</g>
<g>
</g>
<g>
</g>
<g>
</g>
<g>
</g>
</svg>
