<svg height="512pt" viewBox="0 0 512.10208 512" width="512pt" xmlns="http://www.w3.org/2000/svg"><path d="m68.832031 134.898438c-16.335937-11.199219-38.511719-8.136719-51.203125 7.074218-12.6875 15.207032-11.726562 37.570313 2.21875 51.636719l39.9375 40.019531zm0 0" fill="#d4e1f4"/><path d="m503.519531 401.140625c-8.859375 17.578125-21.0625 33.261719-35.925781 46.164063-42.582031 37.546874-107.519531 56.234374-181.675781 56.234374-2.132813 0-4.265625 0-6.398438-.167968-80.640625-1.28125-150.699219-29.78125-188.929687-71.683594-8.429688-9.101562-15.472656-19.394531-20.90625-30.546875-.511719-1.023437-.9375-2.046875-1.363282-3.074219-5.589843-12.453125-8.496093-25.941406-8.535156-39.59375v-166.65625c0-98.558594 77.910156-181.671875 176.46875-183.210937 14.292969-.261719 28.566406 1.226562 42.496094 4.4375 81.566406 18.578125 139.433594 91.109375 139.433594 174.765625v139.089844c-.21875 16.597656 3.929687 32.960937 12.035156 47.445312 11.261719 19.371094 35.242188 35.585938 73.300781 26.796875zm0 0" fill="#d4e1f4"/><path d="m460.851562 446.28125c-42.835937 36.949219-107.347656 55.980469-181.332031 57.089844-80.640625-1.28125-150.699219-29.78125-188.929687-71.683594-8.429688-9.101562-15.472656-19.394531-20.90625-30.546875-.511719-1.023437-.9375-2.046875-1.363282-3.074219v-221.78125c.234376-88.09375 71.816407-159.332031 159.914063-159.144531 10.835937-.027344 21.648437 1.089844 32.253906 3.328125 74.21875 14.929688 127.621094 80.113281 127.660157 155.816406v194.476563s0 54.101562 72.703124 75.519531zm0 0" fill="#e3e7f2"/><path d="m476.125 193.609375-63.402344 63.402344-17.492187-17.492188-36.777344-36.863281 63.316406-63.320312c11.351563-11.363282 28.578125-14.460938 43.179688-7.765626.082031 0 0 .085938 0 .085938 4.171875 1.835938 7.964843 4.441406 11.175781 7.679688 7.214844 7.191406 11.265625 16.953124 11.265625 27.136718s-4.050781 19.949219-11.265625 27.136719zm0 0" fill="#d4e1f4"/><path d="m458.121094 176.542969-74.070313 79.53125-25.597656-53.417969 63.316406-63.320312c11.351563-11.363282 28.578125-14.460938 43.179688-7.765626.082031 0 0 .085938 0 .085938 7.863281 14.832031 5.089843 33.0625-6.828125 44.886719zm0 0" fill="#e3e7f2"/><path d="m170.71875 247.539062h68.265625c14.140625 0 25.601563 11.460938 25.601563 25.601563v34.132813c0 32.988281-26.746094 59.734374-59.734376 59.734374-32.988281 0-59.734374-26.746093-59.734374-59.734374v-34.132813c0-14.140625 11.460937-25.601563 25.601562-25.601563zm0 0" fill="#7facfa"/><path d="m358.453125 298.738281c0 14.140625-11.460937 25.601563-25.601563 25.601563-14.136718 0-25.601562-11.460938-25.601562-25.601563 0-14.136719 11.464844-25.597656 25.601562-25.597656 14.140626 0 25.601563 11.460937 25.601563 25.597656zm0 0" fill="#e3e7f2"/><path d="m110.984375 298.738281c0 14.140625-11.460937 25.601563-25.597656 25.601563-14.140625 0-25.601563-11.460938-25.601563-25.601563 0-14.136719 11.460938-25.597656 25.601563-25.597656 14.136719 0 25.597656 11.460937 25.597656 25.597656zm0 0" fill="#e3e7f2"/><path d="m261.257812 326.898438c-7.960937 23.023437-29.167968 38.855468-53.503906 39.9375-7.296875-6.433594-11.464844-15.703126-11.433594-25.429688-.035156-15.984375 11.042969-29.839844 26.644532-33.324219 15.597656-3.484375 31.519531 4.339844 38.292968 18.816407zm0 0" fill="#e3e7f2"/><path d="m59.785156 233.628906v124.84375c.039063 13.652344 2.945313 27.140625 8.535156 39.59375.425782 1.027344.851563 2.050782 1.363282 3.074219 5.433594 11.152344 12.476562 21.445313 20.90625 30.546875 38.230468 41.902344 108.289062 70.402344 188.929687 71.683594 2.132813.167968 4.265625.167968 6.398438.167968 5.238281 0 10.429687-.117187 15.574219-.304687-79.105469-2.066406-147.628907-30.277344-185.300782-71.546875-8.429687-9.101562-15.476562-19.394531-20.90625-30.546875-.511718-1.023437-.941406-2.046875-1.367187-3.074219-5.585938-12.453125-8.492188-25.941406-8.53125-39.59375v-124.84375l-39.9375-40.019531c-9.375-9.28125-13.292969-22.746094-10.367188-35.609375 2.929688-12.859375 12.289063-23.300781 24.753907-27.613281-16.890626-6.042969-35.714844.441406-45.304688 15.601562-9.589844 15.164063-7.378906 34.949219 5.316406 47.621094zm0 0" fill="#fff"/><path d="m72.585938 128.074219c7.804687 0 15.425781 2.382812 21.84375 6.824219v.179687c22.117187-70.519531 85.019531-120.40625 158.722656-125.882813-5.589844-.433593-11.207032-.691406-16.898438-.589843-74.464844 1.839843-140.085937 49.402343-165.007812 119.597656.484375-.019531.886718-.128906 1.339844-.128906zm0 0" fill="#fff"/><path d="m502.308594 403.28125c.382812-.734375.851562-1.40625 1.210937-2.140625-2.40625.566406-4.753906 1.023437-7.042969 1.363281 1.921876.34375 3.824219.597656 5.832032.777344zm0 0" fill="#fff"/><path d="m60.707031 132.289062c11.9375-37.121093 34.820313-69.769531 65.636719-93.664062 31.476562-24.359375 69.988281-37.882812 109.78125-38.5507812l.257812 17.0664062c-36.117187.597656-71.074218 12.871094-99.636718 34.984375-28.074219 21.792969-48.914063 51.550781-59.792969 85.386719zm0 0" fill="#fff"/><g fill="#428dff"><path d="m93.78125 79.519531c.238281.484375.550781.929688.921875 1.320313.398437.410156.824219.792968 1.273437 1.144531 1.835938 1.3125 4.082032 1.917969 6.332032 1.707031 1.078125-.152344 2.117187-.511718 3.0625-1.058594 2.792968-1.695312 4.433594-4.789062 4.265625-8.054687-.125-1.101563-.449219-2.171875-.957031-3.15625-1.246094-2.628906-3.769532-4.425781-6.660157-4.746094-2.894531-.320312-5.746093.882813-7.539062 3.175781-1.398438 1.875-2.0625 4.203126-1.859375 6.535157l.382812 1.613281c.1875.539062.449219 1.050781.777344 1.519531zm0 0"/><path d="m51.25 237.164062v121.308594c.074219 16.058594 3.742188 31.898438 10.738281 46.355469 30.734375 64.144531 120.726563 107.246094 223.929688 107.246094 109.097656 0 191.199219-39.039063 225.28125-107.121094 1.480469-2.957031 1.121093-6.503906-.925781-9.101563-2.046876-2.597656-5.410157-3.777343-8.632813-3.03125-40.414063 9.335938-58.214844-12.800781-64-22.742187-7.355469-13.1875-11.121094-28.078125-10.921875-43.179687v-71.816407l55.464844-55.464843c17.59375-17.949219 17.878906-46.589844.648437-64.886719s-45.835937-19.730469-64.808593-3.242188c-24.871094-79.230469-98.863282-132.6875-181.898438-131.4140622-39.792969.6640622-78.304688 14.1914062-109.78125 38.5507812l-6.824219 5.71875c-1.808593 1.445312-2.933593 3.582031-3.09375 5.894531-.164062 2.308594.648438 4.582031 2.238281 6.265625 3.160157 3.335938 8.34375 3.703125 11.949219.855469l6.246094-5.214844c28.539063-22.109375 63.46875-34.386719 99.566406-35.003906 78.710938-1.238281 148.019531 51.613281 167.652344 127.847656l-51.660156 51.660157c-2.21875 2.140624-3.105469 5.3125-2.328125 8.296874.78125 2.984376 3.113281 5.3125 6.097656 6.09375 2.980469.78125 6.15625-.109374 8.296875-2.324218l63.359375-63.363282c11.664062-11.664062 30.578125-11.664062 42.242188 0 11.664062 11.667969 11.664062 30.578126 0 42.242188l-57.933594 57.925781-5.425782 5.417969c-2.035156 2.035156-2.90625 4.960938-2.316406 7.777344.589844 2.820312 2.5625 5.148437 5.242188 6.199218v61.984376c-.210938 18.101562 4.339844 35.941406 13.191406 51.730468 13.226562 22.691406 38.382812 35.691406 64.546875 33.347656-35.199219 52.992188-107.425781 83.03125-201.472656 83.03125-95.265625 0-181.015625-40.109374-208.527344-97.527343-5.898437-12.164063-8.996094-25.492188-9.070313-39.007813v-30.34375c5.164063 3.070313 11.054688 4.710938 17.066407 4.746094 18.851562 0 34.132812-15.285156 34.132812-34.136719 0-18.847656-15.28125-34.132812-34.132812-34.132812-6.011719.035156-11.902344 1.675781-17.066407 4.746093v-77.515624c-.015624-18.433594 2.898438-36.753907 8.625-54.273438 3.414063-10.3125 7.71875-20.304688 12.867188-29.867188 2.042969-4.128906.578125-9.132812-3.371094-11.511718-1.976562-1.175782-4.355468-1.476563-6.566406-.832032-2.210938.648438-4.050781 2.1875-5.078125 4.246094-4.128906 7.511719-7.695313 15.316406-10.667969 23.355469-20.664062-8.207031-44.25-.753906-56.449218 17.832031-12.199219 18.589844-9.648438 43.191406 6.101562 58.882813zm34.136719 44.507813c9.425781 0 17.066406 7.640625 17.066406 17.066406s-7.640625 17.070313-17.066406 17.070313-17.066407-7.644532-17.066407-17.070313 7.640626-17.066406 17.066407-17.066406zm-59.503907-136.300781c8.734376-8.457032 21.664063-10.894532 32.878907-6.203125-4.941407 17.113281-7.46875 34.835937-7.511719 52.648437v21.179688l-25.367188-25.417969c-11.644531-11.660156-11.644531-30.546875 0-42.207031zm0 0"/><path d="m183.175781 164.296875c-5.304687-5.871094-11.730469-10.621094-18.898437-13.96875-14.855469-6.878906-31.984375-6.878906-46.839844 0-7.171875 3.347656-13.597656 8.101563-18.902344 13.976563-5.429687 5.96875-9.695312 12.902343-12.578125 20.4375-1.097656 2.84375-.59375 6.058593 1.320313 8.433593 1.914062 2.371094 4.949218 3.542969 7.960937 3.070313s5.542969-2.515625 6.640625-5.359375c2.121094-5.5625 5.265625-10.679688 9.269532-15.085938 3.78125-4.203125 8.371093-7.601562 13.488281-10 10.285156-4.761719 22.144531-4.761719 32.429687 0 5.113282 2.390625 9.699219 5.785157 13.480469 9.980469 4 4.410156 7.140625 9.527344 9.257813 15.089844 1.269531 3.300781 4.445312 5.476562 7.980468 5.46875 1.050782.003906 2.09375-.191406 3.070313-.570313 2.113281-.816406 3.816406-2.4375 4.730469-4.503906.917968-2.070313.976562-4.417969.160156-6.53125-2.882813-7.535156-7.144532-14.464844-12.570313-20.4375zm0 0"/><path d="m328.242188 164.296875c-5.304688-5.871094-11.730469-10.621094-18.898438-13.96875-14.855469-6.878906-31.984375-6.878906-46.839844 0-7.171875 3.347656-13.597656 8.101563-18.902344 13.976563-5.429687 5.96875-9.695312 12.902343-12.578124 20.4375-1.097657 2.84375-.59375 6.058593 1.320312 8.433593 1.914062 2.371094 4.949219 3.542969 7.960938 3.070313 3.011718-.472656 5.542968-2.515625 6.640624-5.359375 2.121094-5.5625 5.265626-10.679688 9.269532-15.085938 3.78125-4.203125 8.371094-7.601562 13.492187-10 10.28125-4.761719 22.140625-4.761719 32.425781 0 5.117188 2.390625 9.699219 5.785157 13.480469 9.980469 4 4.410156 7.140625 9.527344 9.261719 15.089844 1.265625 3.300781 4.441406 5.476562 7.976562 5.46875 1.050782.003906 2.09375-.191406 3.070313-.570313 2.113281-.816406 3.816406-2.4375 4.730469-4.503906.917968-2.070313.976562-4.417969.160156-6.53125-2.882812-7.535156-7.144531-14.464844-12.570312-20.4375zm0 0"/><path d="m136.585938 273.140625v34.132813c-.035157 33.230468 23.886718 61.652343 56.636718 67.292968s64.796875-13.136718 75.886719-44.464844c.074219-.1875.144531-.367187.203125-.566406 2.503906-7.15625 3.792969-14.679687 3.804688-22.261718v-34.132813c0-18.851563-15.28125-34.132813-34.132813-34.132813h-68.265625c-18.851562 0-34.132812 15.28125-34.132812 34.132813zm74.613281 84.898437c-4.066407-4.589843-6.324219-10.5-6.347657-16.632812-.027343-11.339844 7.425782-21.339844 18.300782-24.550781 10.875-3.214844 22.566406 1.125 28.710937 10.660156-7.203125 16.648437-22.664062 28.253906-40.664062 30.523437zm44.851562-84.898437v34.304687c-15.109375-11.476562-35.996093-11.554687-51.191406-.195312-15.195313 11.363281-21.027344 31.417969-14.292969 49.160156-21.84375-6.371094-36.878906-26.382812-36.914062-49.136718v-34.132813c0-9.425781 7.640625-17.066406 17.066406-17.066406h68.265625c9.425781 0 17.066406 7.640625 17.066406 17.066406zm0 0"/><path d="m298.71875 298.738281c0 18.851563 15.28125 34.136719 34.132812 34.136719 18.851563 0 34.132813-15.285156 34.132813-34.136719 0-18.847656-15.28125-34.132812-34.132813-34.132812-18.851562 0-34.132812 15.285156-34.132812 34.132812zm51.199219 0c0 9.425781-7.640625 17.070313-17.066407 17.070313-9.425781 0-17.066406-7.644532-17.066406-17.070313s7.640625-17.066406 17.066406-17.066406c9.425782 0 17.066407 7.640625 17.066407 17.066406zm0 0"/></g></svg>